
<svg width="910" height="372" xmlns="http://www.w3.org/2000/svg">
    <path style="display:inline;fill:#563f49;fill-opacity:1;stroke-width:.81966" d="M157.627 3.252c-20.872.03-29.18.858-43.697 4.358C57.4 21.237 20.39 63.062 7.035 128.412c-3.839 18.784-5.084 33.63-5.056 60.346.02 20.004.567 30.767 2.015 39.685.264 1.624.984 6.2 1.6 10.168 4.85 31.243 16.695 59.43 35.285 83.961 25.496 33.646 56.637 48.754 105.994 51.426 28.28 1.531 54.396-1.659 73.084-8.93 16.408-6.383 28.622-16.17 62.6-50.152 3.365-3.365 9.586-8.429 13.826-11.254l7.709-5.136-.291 34.818-.29 34.816h342.216l-.282-46.853c-.185-30.715.061-46.475.717-45.752.917 1.01 35.727 60.205 48.762 82.922l5.547 9.668 35.594.008c19.575.005 35.895.025 36.265.047.668.038 5.918-8.762 38.748-64.965 9.374-16.048 17.128-29.232 17.233-29.3.104-.066.03 20.821-.164 46.417-.195 25.596-.137 46.898.127 47.338.368.614 9.87.758 41.066.62l40.588-.179V163.833l-63.201.144-63.202.144-1.218 1.496c-1.06 1.302-41.039 62.505-43.563 66.69-.52.862-1.118 1.45-1.33 1.31-.212-.14-2.013-4.239-4.002-9.109a8619.531 8619.531 0 0 0-10.39-25.254c-8.514-20.605-9.778-23.67-20.01-48.541-4.601-11.184-8.517-20.433-8.701-20.555-.185-.122-21.92 9.132-48.3 20.565-26.38 11.433-55.667 24.078-65.083 28.1l-17.121 7.312-.035 48.049-.036 48.047H402.932l.045-18.858.044-18.86 22.745-11.257c108.106-53.514 251.57-120.941 416.562-195.781 44.965-20.396 47.67-21.535 59.008-24.842 5.925-1.729 11.05-3.32 11.389-3.537.339-.217-78.044-.395-174.186-.395H563.736v50.907c0 40.47.262 50.834 1.28 50.562.704-.188 9.346-2.696 19.205-5.574 22.15-6.466 92.232-26.784 97.814-28.358 2.254-.635 8.592-2.502 14.084-4.15 5.493-1.648 9.987-2.88 9.987-2.736 0 .143-20.395 6.901-45.323 15.021-24.927 8.12-53.85 17.597-64.271 21.059-27.754 9.22-44.558 14.334-91.67 27.904-8.45 2.434-34.626 10.07-58.17 16.969-23.544 6.899-43.017 12.545-43.273 12.545-.257 0-.467-12.694-.467-28.207v-28.205H560.15l-.12-48.705-.122-48.704H304.092l-.104 54.444c-.056 29.944-.171 71.153-.256 91.576l-.152 37.13-18.18 5.3c-58.426 17.029-68.48 20.002-69.552 20.564-.652.342-1.487 2.453-1.856 4.692-2.663 16.175-10.78 36.59-18.441 46.384-9.306 11.898-23.898 17.751-42.022 16.858-24.804-1.223-40.694-15.479-47.675-42.774-6.736-26.33-6.964-78.496-.46-104.422 5.903-23.523 20.374-40.566 38.903-45.814 7.822-2.216 18.555-2.608 25.94-.945 19.717 4.438 33.379 19.324 40.17 43.77.726 2.615 1.703 4.755 2.171 4.755 1.513 0 85.407-21.779 86.438-22.44.331-.212-.825-4.869-2.569-10.347-13.943-43.813-35.374-73.058-65.298-89.11-12.362-6.63-24.932-10.576-43.577-13.68-9.61-1.599-12.106-1.743-29.945-1.718Zm4.272 6.22c15.432.269 30.493 2.135 42.578 5.555 34.774 9.843 58.912 31.056 76.425 67.165 3.747 7.723 11.413 28.35 11.413 30.707 0 .336-6.109 2.172-13.573 4.08-7.464 1.907-24.594 6.367-38.066 9.91-13.472 3.543-24.768 6.441-25.104 6.441-.335 0-1.397-2.744-2.361-6.1-4.771-16.61-18.183-32.604-32.156-38.347-8.665-3.561-12.459-4.313-21.893-4.344-7.684-.025-9.517.217-15.627 2.049-19.621 5.884-34.79 22.233-41.603 44.844-4.988 16.551-5.68 23.364-5.721 56.344-.045 36.24.964 45.825 6.777 64.439 7.561 24.21 25.344 38.76 49.133 40.2 19.85 1.2 35.893-4.971 46.154-17.753 8.482-10.565 15.347-25.893 18.791-41.955.929-4.33 1.993-8.252 2.364-8.717.371-.465 15.194-5.07 32.94-10.232a50689.63 50689.63 0 0 0 67.599-19.732c38.76-11.348 87.62-25.631 139.806-40.866 18.59-5.427 36.796-10.747 40.457-11.824 26.25-7.722 33.182-9.75 48.653-14.23 9.576-2.774 46.218-14.508 81.426-26.077 75.564-24.828 127.058-41.73 162.341-53.283 14.084-4.611 29.063-9.538 33.288-10.949 3.4-1.135 5.706-1.794 5.89-1.705h.002l.002.002.002.002.002.002.002.002v.004l.002.002v.01h-.002c-.017.034-.105.094-.265.178-1.127.582-31.547 14.545-67.6 31.029C647.489 119.58 518.739 180.157 455.566 211.43c-82.255 40.719-125.628 63.683-153.365 81.197-14.85 9.377-13.354 8.097-41.15 35.195-23.081 22.502-35.483 30.19-57.444 35.606-4.446 1.096-11.77 2.48-16.277 3.076-9.843 1.301-32.896 1.816-43.531.97-29.419-2.337-49.58-8.197-67.592-19.648-14.611-9.29-26.622-21.353-37.223-37.388-20.02-30.284-28.873-59.109-31.367-102.125C1.353 100.228 40.67 30.268 117.096 13.51c13.567-2.975 29.37-4.305 44.803-4.037Zm747.82 2.38c-.397.254-4.25 5.33-8.563 11.281a96932.579 96932.579 0 0 0-27.306 37.715 231910.37 231910.37 0 0 1-48.432 66.908 7641.224 7641.224 0 0 0-13.506 18.693c-1.94 2.706-4.187 5.777-4.992 6.825-.805 1.047-1.465 2.007-1.465 2.132s23.504.227 52.229.227h52.226l.264-72.121c.146-39.667-.059-71.914-.455-71.66zm-340.862 3.4 149.696.012c82.333.006 149.486.147 149.228.312-.257.165-5.19 1.641-10.959 3.28a1805.015 1805.015 0 0 0-19.252 5.595c-4.819 1.44-8.91 2.616-9.091 2.616-.183 0-5.243 1.477-11.245 3.28-6.002 1.805-11.061 3.28-11.244 3.28-.182 0-4.363 1.204-9.29 2.676-4.929 1.472-15.046 4.4-22.483 6.508-7.438 2.107-17.555 5.034-22.483 6.506-4.928 1.471-9.1 2.677-9.27 2.677-.169 0-4.387 1.218-9.372 2.707a1538.49 1538.49 0 0 1-17.77 5.172 1767.903 1767.903 0 0 0-15.875 4.58 5910.767 5910.767 0 0 1-22.789 6.635l-31.24 9.04c-8.59 2.484-18.846 5.468-22.789 6.632-3.943 1.163-13.161 3.82-20.484 5.902a3041.775 3041.775 0 0 0-20.475 5.895c-3.938 1.159-8.432 2.528-9.986 3.043l-2.827.935v-43.64Zm-260.156.008h245.817v84.945l-78.354-.172-78.353-.172-.065 26.082c-.035 14.346-.009 28.923.057 32.393l.119 6.309-3.897 1.007c-2.143.554-7.585 2.104-12.091 3.444-4.507 1.34-14.185 4.143-21.508 6.228-12.817 3.65-16.972 4.874-40.354 11.883-5.857 1.756-10.81 3.192-11.01 3.192-.198 0-.36-39.406-.36-87.569zm595.479 13.3c.344-.22.627 26.897.627 60.26v60.66l-38.153.016c-39.467.016-48.909-.167-48.904-.949.002-.252 9.73-13.888 21.617-30.303 11.888-16.415 23.593-32.65 26.012-36.078 2.419-3.427 8.181-11.395 12.805-17.709 8.247-11.261 15.358-21.178 22.02-30.703 1.842-2.636 3.631-4.973 3.976-5.193zM691.176 138.06c.075-.002.13.007.162.027.907.581 4.562 9.266 30.15 71.662a1608.406 1608.406 0 0 0 7.159 17.055c2.31 5.412 4.737 11.832 5.394 14.268.657 2.435 1.567 4.427 2.02 4.427.452 0 1.3-.81 1.886-1.802.586-.993 3.78-5.938 7.098-10.989 10.106-15.384 29.654-45.432 35.205-54.115 2.883-4.51 5.586-8.125 6.006-8.035.42.09 27.265.164 59.656.164h58.895V362.258H833.109l-.048-53.625-.05-53.623-13.314 22.629c-7.323 12.446-16.214 27.65-19.757 33.783-3.544 6.133-11.689 20.079-18.098 30.992l-11.652 19.844-33.323-.008-33.322-.008-2.752-4.748c-1.513-2.612-15.41-26.444-30.883-52.961-15.473-26.517-28.353-48.802-28.625-49.523-.271-.722-.548 23.112-.613 52.966l-.12 54.282h-71.694v-85.86c0-72.314.222-85.915 1.41-86.207 1.432-.352 110.984-47.816 117.213-50.783 1.634-.779 3.167-1.332 3.695-1.35zM397.81 247.402v41.413l80.914-.176 80.914-.176v73.795H308.684l.263-33.578.266-33.578 13.828-7.819c16.063-9.082 35.863-19.726 58.637-31.523zM925.543 392.93l-.059.144.145-.12c-.029-.009-.057-.017-.086-.024zm-4.77 2.767c-.558.058-1.11.148-1.656.264.2.085.396.172.592.264.332-.152.687-.326 1.065-.528zm-789.378 6.413-.079.25c.45-.045.9-.09 1.35-.131-.424-.04-.848-.079-1.271-.12zm-114.118 5.183c-.07.05-.143.099-.216.147a.631.631 0 0 0 .103-.018c.104-.028.205-.057.3-.086a8.74 8.74 0 0 0-.187-.043zm47.44 6.506c-.68.048-1.36.093-2.04.135l-.107.03c.726-.01 1.451-.018 2.176-.026a2.165 2.165 0 0 1-.03-.139zm811.236 5.736-.002.002h-.002a.042.042 0 0 1-.006.008l-.004.002.145.004-.131-.015zm-133.828 4.442a.083.083 0 0 1 .012.01l.316-.008-.328-.002zm-698.424 1.021c-.061.093-.126.185-.191.281-.031.412-.063.824-.098 1.235.484-.523 1.03-1.077.29-1.516zm-.367 2.625-.021.004-.002.028.023-.032zm804.365 3.768c-.01.052-.02.104-.033.156l4.217-.023c.04-.04.082-.078.123-.118-1.435-.01-2.872-.014-4.307-.015zm-20.525 4.002-.002.002c-.035.017-.135.153-.291.46l.072.009c.163-.245.239-.425.23-.463v-.002l-.001-.002v-.002h-.002v-.002h-.004zm-635.84 20.078-.072.068.658-.013-.586-.055zm-165.84 2.424-.113.713c.175-.114.351-.228.527-.34a6.929 6.929 0 0 1-.414-.373zm909.389 7.308-.379.106.053.078c.11-.06.218-.122.326-.184zm-62.242 1.957-.73.047.765.02-.035-.067zm-642.88.254c-2.025.013-4.05.027-6.075.043v.08zm-218.196.664c-.335.121-.742.254-1.276.444h1.486l-.21-.444z" transform="translate(-1.978 -3.25)"/>
</svg>
